<svg id="Layer_1" data-name="Layer 1" xmlns="http://www.w3.org/2000/svg" viewBox="0 0 178.75 190.05"><defs><style>.cls-1{fill:#fbb879;}.cls-10,.cls-15,.cls-2{fill:none;stroke-linecap:round;stroke-miterlimit:10;stroke-width:5px;}.cls-2{stroke:#fbb879;}.cls-3{fill:#fdf5a0;}.cls-4{fill:#ffe579;}.cls-5{fill:#d8bf56;}.cls-6{fill:#675a4e;}.cls-7{fill:#989898;}.cls-8{fill:#fff;}.cls-9{fill:#f04c29;}.cls-10{stroke:#f04c29;}.cls-11{fill:#fdbf27;}.cls-12{fill:#faa523;}.cls-13{fill:#d68a28;}.cls-14{fill:#7f3f1b;}.cls-15{stroke:#7f3f1b;}.cls-16{fill:#e43226;}.cls-17{fill:#d61f35;}</style></defs><title>canary</title><polygon class="cls-1" points="163.35 31.86 178.27 39.01 165.33 47.64 163.35 31.86"/><path class="cls-2" d="M100,110.78s6.41,16.27,1.23,30.57" transform="translate(-2 -2)"/><path class="cls-2" d="M115.54,110.78s6.41,16.27,1.23,30.57" transform="translate(-2 -2)"/><path class="cls-3" d="M62.23,99c14.15,24.87,118,34.49,106.08-62.4-15.78-47.09-57.6-15.78-59.91-15C100,26.71,87,47.91,87,47.91S66.35,70.89,62.23,99Z" transform="translate(-2 -2)"/><path class="cls-4" d="M32.47,67.14C62.55,70.7,71.92,58.27,87.94,45c17-11.09,23.67-3.2,23.67-3.2A19.27,19.27,0,0,1,120,61.47C117.77,75,109.88,98.21,69,100.18,42.83,97.22,44.31,80.21,32.47,67.14Z" transform="translate(-2 -2)"/><circle class="cls-5" cx="147.33" cy="37.78" r="5.92"/><path class="cls-2" d="M103.27,128.78s-5.47,6.16-9.41,8.63" transform="translate(-2 -2)"/><path class="cls-2" d="M103.27,128.78s6.12,8.17,5.62,11.09" transform="translate(-2 -2)"/><path class="cls-2" d="M118.79,128.78a118.84,118.84,0,0,1-8.66,8.63" transform="translate(-2 -2)"/><path class="cls-2" d="M118.79,128.78s5.88,3.94,5.88,9.86" transform="translate(-2 -2)"/><path class="cls-6" d="M91.89,31.15l69.28-16.76-5.92-2S146.73-3.86,120.3,4.28,97.06,26.71,97.06,26.71Z" transform="translate(-2 -2)"/><path class="cls-7" d="M157.87,12.47c2.43-.77.3-9.61-1.43-10.47a10.9,10.9,0,0,0-7.11,4.43l0.73,5.37S154.58,13.42,157.87,12.47Z" transform="translate(-2 -2)"/><ellipse class="cls-8" cx="157.1" cy="7.17" rx="0.86" ry="4.77" transform="matrix(0.98, -0.19, 0.19, 0.98, -0.42, 28.53)"/><polygon class="cls-9" points="14.92 63.76 0 70.91 12.95 79.54 14.92 63.76"/><path class="cls-10" d="M82.25,142.68S75.84,158.95,81,173.25" transform="translate(-2 -2)"/><path class="cls-10" d="M66.73,142.68s-6.41,16.27-1.23,30.57" transform="translate(-2 -2)"/><path class="cls-11" d="M120,130.87C105.89,155.74,2,165.36,14,68.47c15.78-47.09,57.6-15.78,59.91-15,8.38,5.18,21.45,26.38,21.45,26.38S115.92,102.79,120,130.87Z" transform="translate(-2 -2)"/><path class="cls-12" d="M149.8,99c-30.08,3.55-39.45-8.88-55.47-22.19-17-11.09-23.67-3.2-23.67-3.2a19.27,19.27,0,0,0-8.38,19.72c2.22,13.56,10.11,36.73,51,38.71C139.45,129.12,138,112.11,149.8,99Z" transform="translate(-2 -2)"/><circle class="cls-13" cx="30.94" cy="69.68" r="5.92"/><path class="cls-10" d="M79,160.67s5.47,6.16,9.41,8.63" transform="translate(-2 -2)"/><path class="cls-10" d="M79,160.67s-6.12,8.17-5.62,11.09" transform="translate(-2 -2)"/><path class="cls-10" d="M63.48,160.67a118.84,118.84,0,0,0,8.66,8.63" transform="translate(-2 -2)"/><path class="cls-10" d="M63.48,160.67s-5.88,3.94-5.88,9.86" transform="translate(-2 -2)"/><path class="cls-6" d="M90.39,63L21.11,46.28l5.92-2S35.54,28,62,36.17,85.21,58.61,85.21,58.61Z" transform="translate(-2 -2)"/><path class="cls-7" d="M24.4,44.37C22,43.6,24.1,34.76,25.84,33.9a10.9,10.9,0,0,1,7.11,4.43L32.21,43.7S27.69,45.32,24.4,44.37Z" transform="translate(-2 -2)"/><ellipse class="cls-8" cx="25.17" cy="39.07" rx="4.77" ry="0.86" transform="translate(-20.03 54.21) rotate(-78.85)"/><polygon class="cls-14" points="163.83 80.06 178.75 87.21 165.8 95.84 163.83 80.06"/><path class="cls-15" d="M100.5,159s6.41,16.27,1.23,30.57" transform="translate(-2 -2)"/><path class="cls-15" d="M116,159s6.41,16.27,1.23,30.57" transform="translate(-2 -2)"/><path class="cls-9" d="M62.71,147.17c14.15,24.87,118,34.49,106.08-62.4C153,37.68,111.19,69,108.88,69.73c-8.38,5.18-21.45,26.38-21.45,26.38S66.83,119.09,62.71,147.17Z" transform="translate(-2 -2)"/><path class="cls-16" d="M32.95,115.34C63,118.9,72.39,106.47,88.42,93.15c17-11.09,23.67-3.2,23.67-3.2a19.27,19.27,0,0,1,8.38,19.72c-2.22,13.56-10.11,36.73-51,38.71C43.3,145.42,44.78,128.41,32.95,115.34Z" transform="translate(-2 -2)"/><circle class="cls-17" cx="147.81" cy="85.98" r="5.92"/><path class="cls-15" d="M103.75,177s-5.47,6.16-9.41,8.63" transform="translate(-2 -2)"/><path class="cls-15" d="M103.75,177s6.12,8.17,5.62,11.09" transform="translate(-2 -2)"/><path class="cls-15" d="M119.27,177a118.84,118.84,0,0,1-8.66,8.63" transform="translate(-2 -2)"/><path class="cls-15" d="M119.27,177s5.88,3.94,5.88,9.86" transform="translate(-2 -2)"/><path class="cls-6" d="M92.36,79.35l69.28-16.76-5.92-2s-8.51-16.27-34.95-8.14S97.54,74.91,97.54,74.91Z" transform="translate(-2 -2)"/><path class="cls-7" d="M158.35,60.67c2.43-.77.3-9.61-1.43-10.47a10.9,10.9,0,0,0-7.11,4.43L150.54,60S155.06,61.62,158.35,60.67Z" transform="translate(-2 -2)"/><ellipse class="cls-8" cx="157.58" cy="55.37" rx="0.86" ry="4.77" transform="translate(-9.74 29.53) rotate(-11.15)"/></svg>