<?xml version="1.0"?>
<svg width="189" height="189" xmlns="http://www.w3.org/2000/svg" xmlns:svg="http://www.w3.org/2000/svg">
 <title>canary</title>
 <g>
  <title>Layer 1</title>
  <polygon points="163.35000610351562,31.862324891844764 178.27000427246094,39.012322603026405 165.3300018310547,47.64232367114164 163.35000610351562,31.862324891844764 " fill="#fbb879" id="y_beak"/>
  <path d="m60.23,97.002324c14.15,24.87 118,34.49 106.08,-62.4c-15.78,-47.09 -57.6,-15.78 -59.91,-15c-8.4,5.11 -21.4,26.31 -21.4,26.31s-20.65,22.98 -24.77,51.09z" fill="#fdf5a0" id="y_body"/>
  <path d="m30.47,65.142324c30.08,3.56 39.45,-8.87 55.47,-22.14c17,-11.09 23.67,-3.2 23.67,-3.2a19.27,19.27 0 0 1 8.39,19.67c-2.23,13.53 -10.12,36.74 -51,38.71c-26.17,-2.96 -24.69,-19.97 -36.53,-33.04z" fill="#ffe579" id="y_wing"/>
  <circle cx="147.33" cy="37.782324" r="5.92" fill="#d8bf56" id="y_eye"/>
  <path d="m89.89,29.152324l69.28,-16.76l-5.92,-2s-8.52,-16.25 -34.95,-8.11s-23.24,22.43 -23.24,22.43l-5.17,4.44z" fill="#675a4e" id="y_hat"/>
  <path d="m155.87,10.472324c2.43,-0.77 0.3,-9.61 -1.43,-10.47a10.9,10.9 0 0 0 -7.11,4.43l0.73,5.37s4.52,1.62 7.81,0.67z" fill="#989898" id="y_torch"/>
  <ellipse fill="#fff" cx="157.175824" cy="6.778909" rx="0.86" ry="4.77" transform="matrix(0.98,-0.19,0.19,0.98,-0.42,28.53) " id="y_light"/>
  <polygon points="14.920000076293945,63.762322603026405 0,70.91232794360258 12.949999809265137,79.54232519702055 14.920000076293945,63.762322603026405 " id="o_beak" fill="#f04c29"/>
  <path stroke-width="2" d="m80.25,140.682324s-6.41,16.27 -1.25,30.57" id="o_leg_r" stroke="#f04c29" fill="none"/>
  <path stroke-width="2" d="m64.73,140.682324s-6.41,16.27 -1.23,30.57" id="o_leg_l" stroke="#f04c29" fill="none"/>
  <path d="m118,128.872324c-14.11,24.87 -118,34.49 -106,-62.4c15.78,-47.09 57.6,-15.78 59.91,-15c8.38,5.18 21.45,26.38 21.45,26.38s20.56,22.94 24.64,51.02z" id="o_body" fill="#fdbf27"/>
  <path d="m147.8,97.002324c-30.08,3.55 -39.45,-8.88 -55.47,-22.19c-17,-11.09 -23.67,-3.2 -23.67,-3.2a19.27,19.27 0 0 0 -8.38,19.72c2.22,13.56 10.11,36.73 51,38.71c26.17,-2.92 24.72,-19.93 36.52,-33.04z" id="o_wing" fill="#faa523"/>
  <circle cx="30.94" cy="69.682324" r="5.92" id="o_eye" fill="#d68a28"/>
  <path stroke-width="2" fill="none" stroke="#f04c29" d="m77,158.672324s5.47,6.16 9.41,8.63" id="o_leg_r_t2"/>
  <path stroke-width="2" fill="none" stroke="#f04c29" d="m77,158.672324s-6.12,8.17 -5.62,11.09" id="o_leg_r_t1"/>
  <path stroke-width="2" fill="none" stroke="#f04c29" d="m61.48,158.672324a118.84,118.84 0 0 0 8.66,8.63" id="o_leg_l_t2"/>
  <path stroke-width="2" fill="none" stroke="#f04c29" d="m61.48,158.672324s-5.88,3.94 -5.88,9.86" id="o_leg_l_t1"/>
  <path d="m88.39,61.002324l-69.28,-16.72l5.92,-2s8.51,-16.28 34.97,-8.11s23.21,22.44 23.21,22.44l5.18,4.39z" id="o_hat" fill="#675a4e"/>
  <path d="m22.4,42.372324c-2.4,-0.77 -0.3,-9.61 1.44,-10.47a10.9,10.9 0 0 1 7.11,4.43l-0.74,5.37s-4.52,1.62 -7.81,0.67z" id="o_torch" fill="#989898"/>
  <ellipse fill="#fff" cx="23.139999" cy="37.282323" rx="4.77" ry="0.86" transform="rotate(-78.8499984741211 23.139999389648438,37.2823257446289) " id="o_light"/>
  <polygon points="163.8300018310547,80.06232184008695 178.75,87.21232336596586 165.8000030517578,95.84232061938383 163.8300018310547,80.06232184008695 " id="r_beak" fill="#7f3f1b"/>
  <path stroke-width="2" fill="none" d="m98.5,157.002324s6.41,16.27 1.23,30.57" id="r_leg_l" stroke="#7f3f1b"/>
  <path stroke-width="2" fill="none" d="m114,157.002324s6.41,16.27 1.23,30.57" id="r_leg_r" stroke="#7f3f1b"/>
  <path d="m60.71,145.172324c14.15,24.87 118,34.49 106.08,-62.4c-15.79,-47.09 -57.6,-15.77 -59.91,-15.04c-8.38,5.18 -21.45,26.38 -21.45,26.38s-20.6,22.98 -24.72,51.06z" id="r_body" fill="#f04c29"/>
  <path d="m30.95,113.342324c30.05,3.56 39.44,-8.87 55.47,-22.19c17,-11.09 23.67,-3.2 23.67,-3.2a19.27,19.27 0 0 1 8.38,19.72c-2.22,13.56 -10.11,36.73 -51,38.71c-26.17,-2.96 -24.69,-19.97 -36.52,-33.04z" id="r_wing" fill="#e43226"/>
  <circle cx="147.81" cy="85.982324" r="5.92" id="r_eye" fill="#d61f35"/>
  <path stroke-width="2" stroke="#7f3f1b" fill="none" d="m101.75,175.002324s-5.47,6.16 -9.41,8.63" id="r_leg_l_t1"/>
  <path stroke-width="2" stroke="#7f3f1b" fill="none" d="m101.75,175.002324s6.12,8.17 5.62,11.09" id="r_leg_l_t2"/>
  <path stroke-width="2" stroke="#7f3f1b" fill="none" d="m117.27,175.002324a118.84,118.84 0 0 1 -8.66,8.63" id="r_leg_r_t1"/>
  <path stroke-width="2" fill="none" d="m117.27,175.002324s5.88,3.94 5.88,9.86" id="r_leg_r_t2" stroke="#7f3f1b"/>
  <path d="m90.36,77.352324l69.28,-16.76l-5.92,-2s-8.51,-16.27 -34.95,-8.14s-23.23,22.46 -23.23,22.46l-5.18,4.44z" id="r_hat" fill="#675a4e"/>
  <path d="m156.35,58.672324c2.43,-0.77 0.3,-9.61 -1.43,-10.47a10.9,10.9 0 0 0 -7.11,4.43l0.73,5.37s4.52,1.62 7.81,0.67z" id="r_torch" fill="#989898"/>
  <ellipse fill="#fff" cx="155.24" cy="53.302325" rx="0.86" ry="4.77" transform="rotate(-11.149999618530273 155.2399902343749,53.30233001708982) " id="r_light"/>
 </g>
</svg>